<svg xmlns="http://www.w3.org/2000/svg" xmlns:xlink="http://www.w3.org/1999/xlink" width="30.874" height="32.158" viewBox="0 0 30.874 32.158">
  <defs>
    <linearGradient id="linear-gradient" x1="0.5" x2="0.5" y2="1" gradientUnits="objectBoundingBox">
      <stop offset="0" stop-color="#ff4d75"/>
      <stop offset="0.308" stop-color="#d5499f"/>
      <stop offset="0.776" stop-color="#9b44d9"/>
      <stop offset="1" stop-color="#8542f1"/>
    </linearGradient>
  </defs>
  <g id="boy" transform="translate(-10.22)">
    <path id="Path_1224" data-name="Path 1224" d="M370.621,36.641a2.187,2.187,0,0,0-2.184,2.184.471.471,0,1,0,.942,0,1.242,1.242,0,1,1,1.242,1.242h-.3a.471.471,0,0,0-.471.471V42.15a.471.471,0,0,0,.942,0V41a2.184,2.184,0,0,0-.172-4.362Z" transform="translate(-335.718 -34.34)" fill="url(#linear-gradient)"/>
    <path id="Path_1225" data-name="Path 1225" d="M391.425,143.284a.471.471,0,0,0-.471.471v.138a.471.471,0,0,0,.942,0v-.138A.471.471,0,0,0,391.425,143.284Z" transform="translate(-356.821 -134.285)" fill="url(#linear-gradient)"/>
    <path id="Path_1226" data-name="Path 1226" d="M39.036,0H30.77a2.059,2.059,0,0,0-2.057,2.057V5.784A8.57,8.57,0,0,0,21.672,2.1H19.566a7.076,7.076,0,0,0-6.032,3.4A4.041,4.041,0,0,0,10.7,9.484l.119,4.11a1.877,1.877,0,0,0-.6,1.372v.442A1.884,1.884,0,0,0,12.1,17.291h1.263a7.542,7.542,0,0,0,1.4,2.213l-2.155,2.984a.472.472,0,0,0-.074.157L10.36,31a.923.923,0,0,0,.893,1.155H28.776a1.136,1.136,0,0,0,1.132-1.218L29.73,28.5a4.589,4.589,0,0,0-.488-1.758.471.471,0,1,0-.84.427,3.652,3.652,0,0,1,.388,1.4l.178,2.441a.193.193,0,0,1-.193.207H26.6V29.291a.471.471,0,1,0-.942,0v1.925H15.347l1.2-4.624a.034.034,0,0,1,.033-.026h2.081a2.5,2.5,0,0,0,1.17-.29,5.18,5.18,0,0,0,.924.083,5.054,5.054,0,0,0,3.5-1.394h0c.092.019.022.005,1.418.225a3.659,3.659,0,0,1,1.424.541.471.471,0,1,0,.51-.792,4.594,4.594,0,0,0-1.789-.68A13.206,13.206,0,0,1,24.315,24a.9.9,0,0,1-.578-.833,1.551,1.551,0,0,0,.877-1.919,8.348,8.348,0,0,0,3.538-3.959h.887a1.884,1.884,0,0,0,1.882-1.882v-.442a1.879,1.879,0,0,0-.674-1.442V12.313a2.055,2.055,0,0,0,.524.068h1.483a.311.311,0,0,1,.311.311V14.03a.756.756,0,0,0,.518.725.781.781,0,0,0,.253.043.755.755,0,0,0,.6-.3l1.559-2.008a.282.282,0,0,1,.224-.11h3.32a2.059,2.059,0,0,0,2.057-2.057V2.057A2.06,2.06,0,0,0,39.036,0ZM11.162,15.409v-.442a.941.941,0,0,1,.94-.94h.764a7.732,7.732,0,0,0,.193,2.322H12.1a.941.941,0,0,1-.94-.94Zm9.612,10.008a2.5,2.5,0,0,0,.4-1.366V23.3H22.8a1.842,1.842,0,0,0,.569,1.2A4.129,4.129,0,0,1,20.774,25.417ZM23.1,22.356H21.073a.836.836,0,0,0-.835.835v.859a1.575,1.575,0,0,1-1.573,1.573H16.582a.977.977,0,0,0-.945.731l-1.264,4.861h-3.1l2.144-8.249,3.607-5a.62.62,0,0,1,.407-.251.63.63,0,0,1,.473.114l.023.017a.586.586,0,0,1,.243.465.579.579,0,0,1-.106.355l-.878,1.255a.76.76,0,0,0,.623,1.2h5.319a.617.617,0,0,1,.617.623A.633.633,0,0,1,23.1,22.356Zm6.873-6.947a.941.941,0,0,1-.94.94h-.582a7.08,7.08,0,0,0,.206-1.7c0-.21,0-.418-.012-.622h.388a.941.941,0,0,1,.94.94Zm-.94-2.325h-.456a12.584,12.584,0,0,0-.252-1.528,2.222,2.222,0,0,0-2.032-1.7,14.8,14.8,0,0,1-5.383-1.369,1.071,1.071,0,0,0-1.335.356.673.673,0,0,1-.537.273,1.89,1.89,0,0,1-1.141-.57,9.684,9.684,0,0,1-.931-.931,1.23,1.23,0,0,0-.92-.416h0a1.224,1.224,0,0,0-.915.411,8.026,8.026,0,0,0-1.169,1.745.471.471,0,1,0,.843.42A7.083,7.083,0,0,1,15.84,8.235a.278.278,0,0,1,.21-.094.287.287,0,0,1,.215.1,10.614,10.614,0,0,0,1.023,1.021,2.832,2.832,0,0,0,1.744.8,1.613,1.613,0,0,0,1.33-.688.127.127,0,0,1,.155-.029A15.754,15.754,0,0,0,26.245,10.8a1.274,1.274,0,0,1,1.167.974,11.945,11.945,0,0,1,.269,1.821c.025.34.038.7.038,1.058a6.084,6.084,0,0,1-.338,2.015,7.352,7.352,0,0,1-3.325,3.82,1.548,1.548,0,0,0-.925-.3h-4.97l.678-.969a1.538,1.538,0,0,0-.354-2.123l-.023-.017a1.57,1.57,0,0,0-2.2.349l-.938,1.3a6.48,6.48,0,0,1-1.192-2.056,7.148,7.148,0,0,1-.3-3.074,11.892,11.892,0,0,1,.279-1.861.471.471,0,1,0-.917-.217,12.549,12.549,0,0,0-.263,1.572H12.1a1.882,1.882,0,0,0-.358.035l-.106-3.662A3.1,3.1,0,0,1,13.963,6.35a.471.471,0,0,0,.29-.222,6.131,6.131,0,0,1,5.313-3.088h2.106A7.64,7.64,0,0,1,29.3,10.671V13.1a1.892,1.892,0,0,0-.266-.019Zm11.114-2.76a1.116,1.116,0,0,1-1.115,1.115h-3.32a1.218,1.218,0,0,0-.967.474l-1.243,1.6v-.823a1.254,1.254,0,0,0-1.253-1.253H30.77a1.1,1.1,0,0,1-.524-.131v-.637a8.531,8.531,0,0,0-.591-3.128V2.057A1.116,1.116,0,0,1,30.77.942h8.267a1.116,1.116,0,0,1,1.116,1.115Z" fill="url(#linear-gradient)"/>
    <path id="Path_1227" data-name="Path 1227" d="M133.077,218.752a.471.471,0,0,0,.471-.471v-.526a.471.471,0,0,0-.942,0v.526A.471.471,0,0,0,133.077,218.752Z" transform="translate(-114.699 -203.637)" fill="url(#linear-gradient)"/>
    <path id="Path_1228" data-name="Path 1228" d="M245.154,218.752a.471.471,0,0,0,.471-.471v-.526a.471.471,0,0,0-.942,0v.526A.471.471,0,0,0,245.154,218.752Z" transform="translate(-219.737 -203.637)" fill="url(#linear-gradient)"/>
    <path id="Path_1229" data-name="Path 1229" d="M172.637,259.368a1.717,1.717,0,0,1,1.883,0,.471.471,0,1,0,.475-.814,2.676,2.676,0,0,0-2.832,0,.471.471,0,1,0,.475.814Z" transform="translate(-151.552 -241.935)" fill="url(#linear-gradient)"/>
  </g>
</svg>
