<svg xmlns="http://www.w3.org/2000/svg" width="83.999" height="84" viewBox="0 0 83.999 84"><defs><style>.a{fill:#fff;}</style></defs><path class="a" d="M68.36,0H15.64A15.658,15.658,0,0,0,0,15.64v43.4A15.658,15.658,0,0,0,15.64,74.68h16.02l8.6,8.6a2.46,2.46,0,0,0,3.48,0l8.6-8.6h16.02A15.658,15.658,0,0,0,84,59.04V15.64A15.657,15.657,0,0,0,68.36,0ZM79.078,59.04A10.731,10.731,0,0,1,68.36,69.759H51.32a2.461,2.461,0,0,0-1.74.721L42,78.058,34.42,70.48a2.458,2.458,0,0,0-1.74-.721H15.64A10.731,10.731,0,0,1,4.922,59.04V15.64A10.731,10.731,0,0,1,15.64,4.922H68.36A10.731,10.731,0,0,1,79.078,15.64Zm0,0"/><path class="a" d="M92.461,134.949H84.166a.615.615,0,0,0-.615.615v1.653a.615.615,0,0,0,.615.615h2.629v8.429a.615.615,0,0,0,.615.615h1.807a.615.615,0,0,0,.615-.615v-8.429h2.629a.615.615,0,0,0,.615-.615v-1.653A.615.615,0,0,0,92.461,134.949Zm0,0" transform="translate(-69.843 -112.809)"/><path class="a" d="M148.471,146.877a.615.615,0,0,0,.615-.615V142.5h4.08v3.762a.615.615,0,0,0,.615.615h1.805a.615.615,0,0,0,.615-.615v-10.7a.615.615,0,0,0-.615-.615h-1.805a.615.615,0,0,0-.615.615v4.022h-4.08v-4.022a.615.615,0,0,0-.615-.615h-1.805a.615.615,0,0,0-.615.615v10.7a.615.615,0,0,0,.615.615Zm0,0" transform="translate(-122.089 -112.809)"/><path class="a" d="M217.3,135.316a.615.615,0,0,0-.563-.367h-1.928a.617.617,0,0,0-.563.367l-4.714,10.7a.616.616,0,0,0,.563.863h1.928a.615.615,0,0,0,.563-.368l.91-2.066h4.553l.91,2.066a.615.615,0,0,0,.563.368h1.932a.615.615,0,0,0,.535-.919Zm-.527,6.229h-2l1-2.267Zm0,0" transform="translate(-175.111 -112.809)"/><path class="a" d="M298.183,134.949h-1.807a.615.615,0,0,0-.615.615v6.2l-5.112-6.573a.614.614,0,0,0-.485-.238h-1.807a.615.615,0,0,0-.615.615v10.7a.615.615,0,0,0,.615.615h1.807a.615.615,0,0,0,.615-.615v-6.01l4.958,6.387a.614.614,0,0,0,.486.238h1.959a.615.615,0,0,0,.615-.615v-10.7A.614.614,0,0,0,298.183,134.949Zm0,0" transform="translate(-240.535 -112.809)"/><path class="a" d="M371.833,140.293l3.961-4.313a.615.615,0,0,0-.453-1.031h-2.3a.615.615,0,0,0-.449.194l-3.834,4.085v-3.664a.615.615,0,0,0-.615-.615h-1.806a.615.615,0,0,0-.615.615v10.7a.615.615,0,0,0,.615.615h1.806a.615.615,0,0,0,.615-.615V143.5l.9-.969,3.108,4.1a.616.616,0,0,0,.49.243H375.4a.615.615,0,0,0,.5-.976Zm0,0" transform="translate(-305.725 -112.809)"/><path class="a" d="M158.673,247.2a.614.614,0,0,0-.536-.315h-1.975a.616.616,0,0,0-.527.3l-2.4,3.989-2.4-3.989a.616.616,0,0,0-.527-.3h-1.975a.616.616,0,0,0-.524.938l3.888,6.325v4.05a.615.615,0,0,0,.615.615h1.837a.615.615,0,0,0,.615-.615v-4.05l3.888-6.325A.613.613,0,0,0,158.673,247.2Zm0,0" transform="translate(-123.49 -206.382)"/><path class="a" d="M215.634,245.3a6.135,6.135,0,0,0-4.44,1.759,6.232,6.232,0,0,0,0,8.777,6.482,6.482,0,0,0,8.879,0,6.231,6.231,0,0,0,0-8.777A6.134,6.134,0,0,0,215.634,245.3Zm0,9.412a2.974,2.974,0,0,1-2.244-.945,3.381,3.381,0,0,1,0-4.639,3.135,3.135,0,0,1,4.487,0,3.378,3.378,0,0,1,0,4.639A2.971,2.971,0,0,1,215.634,254.716Zm0,0" transform="translate(-175.034 -205.059)"/><path class="a" d="M300.777,246.887h-1.806a.615.615,0,0,0-.615.615v5.923a2.883,2.883,0,0,1-.586,1.926,2.124,2.124,0,0,1-3.045,0,2.883,2.883,0,0,1-.586-1.926V247.5a.615.615,0,0,0-.615-.615h-1.806a.615.615,0,0,0-.615.615v6a5.368,5.368,0,0,0,1.454,4,5.5,5.5,0,0,0,7.382,0,5.368,5.368,0,0,0,1.454-4v-6A.615.615,0,0,0,300.777,246.887Zm0,0" transform="translate(-243.343 -206.382)"/></svg>