<svg xmlns="http://www.w3.org/2000/svg" xmlns:xlink="http://www.w3.org/1999/xlink" width="59.106" height="59.106" viewBox="0 0 59.106 59.106">
  <defs>
    <linearGradient id="linear-gradient" x1="0.5" y1="-0.25" x2="0.5" y2="0.772" gradientUnits="objectBoundingBox">
      <stop offset="0" stop-color="#ff4d75"/>
      <stop offset="0.308" stop-color="#d5499f"/>
      <stop offset="0.776" stop-color="#9b44d9"/>
      <stop offset="1" stop-color="#8542f1"/>
    </linearGradient>
  </defs>
  <g id="Group_622" data-name="Group 622" transform="translate(-1012.842 -34.626)">
    <g id="Group_599" data-name="Group 599" transform="translate(1012.842 34.626)">
      <path id="Path_4569" data-name="Path 4569" d="M84.333,69.867h0A29.553,29.553,0,0,1,54.78,40.314h0A29.553,29.553,0,0,1,84.333,10.761h0a29.553,29.553,0,0,1,29.553,29.553h0A29.553,29.553,0,0,1,84.333,69.867Z" transform="translate(-54.78 -10.761)" fill="url(#linear-gradient)"/>
    </g>
    <g id="brands-and-logotypes" transform="translate(906 47.958)">
      <g id="Group_597" data-name="Group 597" transform="translate(128)">
        <path id="Path_4605" data-name="Path 4605" d="M138.013,11.014V7.009a2,2,0,0,1,2-2h2V0h-4.005a6.007,6.007,0,0,0-6.008,6.008v5.007H128v5.007h4.005V32.042h6.008V16.021h4.005l2-5.007Z" transform="translate(-128)" fill="#fff"/>
      </g>
    </g>
  </g>
</svg>
