<svg xmlns="http://www.w3.org/2000/svg" width="19.5" height="19.5" viewBox="0 0 19.5 19.5">
  <g id="instagram-card" transform="translate(0 -0.001)">
    <path id="Path_4606" data-name="Path 4606" d="M10.241,5.838a4.395,4.395,0,1,0,4.395,4.395,4.394,4.394,0,0,0-4.395-4.395Zm0,7.247a2.853,2.853,0,1,1,2.853-2.853A2.852,2.852,0,0,1,10.241,13.085Z" transform="translate(-0.487 -0.486)" fill="#fff"/>
    <path id="Path_4607" data-name="Path 4607" d="M13.77.062c-1.794-.084-6.238-.08-8.033,0A5.827,5.827,0,0,0,1.645,1.639C-.23,3.514.01,6.041.01,9.747c0,3.793-.211,6.261,1.636,8.108,1.883,1.882,4.446,1.636,8.108,1.636,3.757,0,5.054,0,6.382-.512,1.806-.7,3.17-2.316,3.3-5.215.084-1.795.08-6.238,0-8.033-.161-3.423-2-5.5-5.668-5.668Zm2.84,16.552c-1.229,1.229-2.935,1.12-6.88,1.12-4.063,0-5.692.06-6.88-1.132C1.48,15.239,1.728,13.051,1.728,9.734c0-4.489-.461-7.722,4.045-7.953,1.035-.037,1.34-.049,3.946-.049l.037.024c4.33,0,7.727-.453,7.931,4.051.046,1.028.057,1.337.057,3.938,0,4.015.076,5.654-1.133,6.868Z" transform="translate(0 0)" fill="#fff"/>
    <circle id="Ellipse_5" data-name="Ellipse 5" cx="1.319" cy="1.319" r="1.319" transform="translate(13.545 3.318)" fill="#fff"/>
  </g>
</svg>
