<svg xmlns="http://www.w3.org/2000/svg" xmlns:xlink="http://www.w3.org/1999/xlink" width="59.106" height="59.106" viewBox="0 0 59.106 59.106">
  <defs>
    <linearGradient id="linear-gradient" x1="0.5" y1="-0.25" x2="0.5" y2="0.772" gradientUnits="objectBoundingBox">
      <stop offset="0" stop-color="#ff4d75"/>
      <stop offset="0.308" stop-color="#d5499f"/>
      <stop offset="0.776" stop-color="#9b44d9"/>
      <stop offset="1" stop-color="#8542f1"/>
    </linearGradient>
  </defs>
  <g id="Group_623" data-name="Group 623" transform="translate(-925.842 -34.626)">
    <g id="Group_595" data-name="Group 595" transform="translate(925.842 34.626)">
      <path id="Path_4569" data-name="Path 4569" d="M84.333,69.867h0A29.553,29.553,0,0,1,54.78,40.314h0A29.553,29.553,0,0,1,84.333,10.761h0a29.553,29.553,0,0,1,29.553,29.553h0A29.553,29.553,0,0,1,84.333,69.867Z" transform="translate(-54.78 -10.761)" fill="url(#linear-gradient)"/>
    </g>
    <g id="logo_1_" data-name="logo (1)" transform="translate(941 50.117)">
      <path id="Path_4606" data-name="Path 4606" d="M13.257,5.838a7.411,7.411,0,1,0,7.411,7.411,7.41,7.41,0,0,0-7.411-7.411Zm0,12.221a4.81,4.81,0,1,1,4.81-4.81A4.809,4.809,0,0,1,13.257,18.059Z" transform="translate(1.189 1.187)" fill="#fff"/>
      <path id="Path_4607" data-name="Path 4607" d="M20.4.091c-2.657-.124-9.239-.118-11.9,0a8.631,8.631,0,0,0-6.06,2.336C-.341,5.2.014,8.947.014,14.436c0,5.618-.313,9.274,2.422,12.009,2.788,2.787,6.585,2.422,12.009,2.422,5.565,0,7.485,0,9.453-.758,2.675-1.039,4.695-3.43,4.892-7.725.125-2.658.118-9.239,0-11.9-.238-5.07-2.959-8.145-8.4-8.4ZM24.6,24.608c-1.821,1.821-4.347,1.658-10.191,1.658-6.017,0-8.43.089-10.191-1.676C2.193,22.571,2.56,19.33,2.56,14.417,2.56,7.768,1.877,2.98,8.55,2.638c1.533-.054,1.984-.072,5.844-.072l.054.036c6.413,0,11.445-.672,11.747,6,.069,1.522.084,1.98.084,5.833,0,5.947.112,8.375-1.678,10.173Z" transform="translate(0 0)" fill="#fff"/>
      <circle id="Ellipse_5" data-name="Ellipse 5" cx="1.732" cy="1.732" r="1.732" transform="translate(20.419 5.001)" fill="#fff"/>
    </g>
  </g>
</svg>
