<svg xmlns="http://www.w3.org/2000/svg" width="19.431" height="19.431" viewBox="0 0 19.431 19.431">
  <path id="linkedinIcon" d="M17.673,0H1.758A1.758,1.758,0,0,0,0,1.758V17.673a1.758,1.758,0,0,0,1.758,1.758H17.673a1.758,1.758,0,0,0,1.758-1.758V1.758A1.758,1.758,0,0,0,17.673,0ZM6.013,16.778a.511.511,0,0,1-.512.511H3.324a.511.511,0,0,1-.512-.511V7.65a.511.511,0,0,1,.512-.512H5.5a.511.511,0,0,1,.512.512Zm-1.6-10.5A2.068,2.068,0,1,1,6.481,4.21,2.069,2.069,0,0,1,4.412,6.278Zm12.979,10.54a.47.47,0,0,1-.47.47H14.585a.47.47,0,0,1-.47-.47V12.538c0-.639.187-2.8-1.669-2.8-1.44,0-1.732,1.478-1.791,2.142v4.938a.47.47,0,0,1-.47.47H7.925a.47.47,0,0,1-.47-.47V7.609a.47.47,0,0,1,.47-.47h2.26a.47.47,0,0,1,.47.47v.8a3.208,3.208,0,0,1,3.017-1.42c3.741,0,3.72,3.5,3.72,5.416v4.417Z" fill="#fff"/>
</svg>
