<svg xmlns="http://www.w3.org/2000/svg" xmlns:xlink="http://www.w3.org/1999/xlink" width="59.106" height="59.106" viewBox="0 0 59.106 59.106">
  <defs>
    <linearGradient id="linear-gradient" x1="0.5" y1="-0.25" x2="0.5" y2="0.772" gradientUnits="objectBoundingBox">
      <stop offset="0" stop-color="#ff4d75"/>
      <stop offset="0.308" stop-color="#d5499f"/>
      <stop offset="0.776" stop-color="#9b44d9"/>
      <stop offset="1" stop-color="#8542f1"/>
    </linearGradient>
  </defs>
  <g id="Group_621" data-name="Group 621" transform="translate(-1186.842 -33.626)">
    <g id="Group_594" data-name="Group 594" transform="translate(1186.842 33.626)">
      <path id="Path_4569" data-name="Path 4569" d="M84.333,69.867h0A29.553,29.553,0,0,1,54.78,40.314h0A29.553,29.553,0,0,1,84.333,10.761h0a29.553,29.553,0,0,1,29.553,29.553h0A29.553,29.553,0,0,1,84.333,69.867Z" transform="translate(-54.78 -10.761)" fill="url(#linear-gradient)"/>
    </g>
    <g id="logo" transform="translate(1201.619 48)">
      <path id="Path_4608" data-name="Path 4608" d="M27.47,27.683h.007V16.906c0-5.271-1.135-9.332-7.3-9.332a6.4,6.4,0,0,0-5.762,3.167h-.086V8.066H8.489V27.682h6.084V17.969c0-2.557.485-5.03,3.652-5.03,3.12,0,3.167,2.918,3.167,5.194v9.55Z" transform="translate(1.903 1.698)" fill="#fff"/>
      <path id="Path_4609" data-name="Path 4609" d="M.4,7.977H6.488V27.592H.4Z" transform="translate(0.089 1.788)" fill="#fff"/>
      <path id="Path_4610" data-name="Path 4610" d="M3.528,0A3.545,3.545,0,1,0,7.056,3.528,3.529,3.529,0,0,0,3.528,0Z" fill="#fff"/>
    </g>
  </g>
</svg>
