<svg xmlns="http://www.w3.org/2000/svg" xmlns:xlink="http://www.w3.org/1999/xlink" width="24.502" height="38.254" viewBox="0 0 24.502 38.254"><defs><style>.a{fill:url(#a);}.b{fill:url(#b);}.c{fill:url(#c);}</style><linearGradient id="a" x1="0.5" y1="-0.566" x2="0.5" y2="2.825" gradientUnits="objectBoundingBox"><stop offset="0" stop-color="#ff4d75"/><stop offset="0.308" stop-color="#d5499f"/><stop offset="0.776" stop-color="#9b44d9"/><stop offset="1" stop-color="#8542f1"/></linearGradient><linearGradient id="b" x1="0.5" y1="-0.167" x2="0.5" y2="1.954" xlink:href="#a"/><linearGradient id="c" x1="0.5" y1="-1.667" x2="0.5" y2="1.606" xlink:href="#a"/></defs><g transform="translate(4.229 4.592)"><path class="a" d="M21.519,69.069a.665.665,0,0,1-.634-.876l1.58-4.874L18.32,60.3a.671.671,0,0,1,.4-1.213h5.124l1.58-4.874a.682.682,0,0,1,.641-.462h0a.682.682,0,0,1,.641.462l1.58,4.874h5.132a.671.671,0,0,1,.391,1.213l-4.146,3.02,1.58,4.874a.671.671,0,0,1-1.033.751l-4.146-3.012-4.146,3.012A.671.671,0,0,1,21.519,69.069Zm-.735-8.637,2.871,2.081a.68.68,0,0,1,.243.751l-1.1,3.372,2.871-2.081a.669.669,0,0,1,.79,0l2.863,2.081-1.1-3.372a.68.68,0,0,1,.243-.751l2.871-2.081H27.8a.682.682,0,0,1-.641-.462l-1.1-3.38-1.1,3.38a.674.674,0,0,1-.641.462Z" transform="translate(-18.043 -53.752)"/></g><path class="b" d="M29.753,77.667A12.251,12.251,0,1,1,42,65.416,12.265,12.265,0,0,1,29.753,77.667Zm0-23.156A10.905,10.905,0,1,0,40.658,65.416,10.914,10.914,0,0,0,29.753,54.511Z" transform="translate(-17.502 -53.165)"/><g transform="translate(6.97 22.382)"><path class="c" d="M28.281,71.9a.679.679,0,0,1-.4-.133l-4.209-3.114-4.209,3.114a.691.691,0,0,1-.7.063.681.681,0,0,1-.368-.6V56.691a.673.673,0,0,1,1.346,0v13.2l3.536-2.613a.657.657,0,0,1,.8,0l3.536,2.613v-13.2a.673.673,0,0,1,1.346,0V71.226a.681.681,0,0,1-.368.6A.7.7,0,0,1,28.281,71.9Z" transform="translate(-18.393 -56.026)"/></g></svg>