<svg id="Group_609" data-name="Group 609" xmlns="http://www.w3.org/2000/svg" xmlns:xlink="http://www.w3.org/1999/xlink" width="30.867" height="26.458" viewBox="0 0 30.867 26.458">
  <defs>
    <linearGradient id="linear-gradient" x1="0.5" x2="0.5" y2="1" gradientUnits="objectBoundingBox">
      <stop offset="0" stop-color="#ff4d75"/>
      <stop offset="0.308" stop-color="#d5499f"/>
      <stop offset="0.776" stop-color="#9b44d9"/>
      <stop offset="1" stop-color="#8542f1"/>
    </linearGradient>
  </defs>
  <g id="Group_510" data-name="Group 510" transform="translate(14.218)">
    <path id="Path_4573" data-name="Path 4573" d="M24.991,81.123H22.67a4.283,4.283,0,0,1-4.276-4.276v-5.2a4.283,4.283,0,0,1,4.276-4.276h2.321a4.283,4.283,0,0,1,4.276,4.276v5.2A4.283,4.283,0,0,1,24.991,81.123ZM22.67,68.372a3.278,3.278,0,0,0-3.275,3.275v5.2a3.282,3.282,0,0,0,3.275,3.275h2.321a3.282,3.282,0,0,0,3.275-3.275v-5.2a3.278,3.278,0,0,0-3.275-3.275Z" transform="translate(-18.394 -67.371)" fill="url(#linear-gradient)"/>
  </g>
  <g id="Group_511" data-name="Group 511" transform="translate(8.441 16.905)">
    <path id="Path_4574" data-name="Path 4574" d="M39.327,79.829a.5.5,0,0,1-.5-.5,8.066,8.066,0,0,0-8.051-8.057H26.453A8.071,8.071,0,0,0,18.4,79.329a.5.5,0,1,1-.995,0,9.062,9.062,0,0,1,9.052-9.052h4.322a9.062,9.062,0,0,1,9.052,9.052A.5.5,0,0,1,39.327,79.829Z" transform="translate(-17.401 -70.277)" fill="url(#linear-gradient)"/>
  </g>
  <g id="Group_514" data-name="Group 514" transform="translate(0 4.625)">
    <g id="Group_512" data-name="Group 512" transform="translate(3.985)">
      <path id="Path_4575" data-name="Path 4575" d="M21.341,77.962h-1.6a3.11,3.11,0,0,1-3.106-3.106V71.272a3.106,3.106,0,0,1,3.106-3.107h1.6a3.1,3.1,0,0,1,3.1,3.107v3.584A3.108,3.108,0,0,1,21.341,77.962Zm-1.6-8.8a2.105,2.105,0,0,0-2.106,2.106v3.584a2.105,2.105,0,0,0,2.106,2.106h1.6a2.1,2.1,0,0,0,2.1-2.106V71.272a2.1,2.1,0,0,0-2.1-2.106Z" transform="translate(-16.635 -68.166)" fill="url(#linear-gradient)"/>
    </g>
    <g id="Group_513" data-name="Group 513" transform="translate(0 12.461)">
      <path id="Path_4576" data-name="Path 4576" d="M16.45,79.68a.5.5,0,0,1-.5-.5V76.707a6.4,6.4,0,0,1,6.4-6.4h2.979a6.3,6.3,0,0,1,.814.052.5.5,0,1,1-.128.989,5.377,5.377,0,0,0-.686-.041H22.349a5.4,5.4,0,0,0-5.4,5.4V79.18A.5.5,0,0,1,16.45,79.68Z" transform="translate(-15.95 -70.308)" fill="url(#linear-gradient)"/>
    </g>
  </g>
  <g id="Group_515" data-name="Group 515" transform="translate(27.452 19.558)">
    <path id="Path_4577" data-name="Path 4577" d="M20.669,70.733" transform="translate(-20.669 -70.733)" fill="url(#linear-gradient)"/>
  </g>
  <g id="Group_516" data-name="Group 516" transform="translate(11.85 19.558)">
    <path id="Path_4578" data-name="Path 4578" d="M17.987,70.733" transform="translate(-17.987 -70.733)" fill="url(#linear-gradient)"/>
  </g>
</svg>
